<svg id="Layer_2" data-name="Layer 2" xmlns="http://www.w3.org/2000/svg" viewBox="0 0 906.83 963"><title>polePV</title><path d="M286.7,37q33.87,67.08,67.72,134.16a8.55,8.55,0,0,1,.23,2.08c-10.93,1.24-21.86,2.54-32.8,3.7q-53.58,5.73-107.17,11.37c-29.24,3.1-58.48,6.13-87.7,9.44-4.29.48-5.12-2.15-6.47-4.84Q91.62,135.49,62.71,78.1C56,64.75,48.91,51.57,42,38.31c1.74-.44,3.49-1.25,5.23-1.26Q167,37,286.7,37Z" transform="translate(-42 -37)"/><path d="M397.93,741a57.62,57.62,0,0,0-2.38-6.57q-34.64-68.94-69.36-137.81c-1.07-2.12-2.09-4.26-3.4-6.93l201.47-84.85,68.48,136-42.47,24.64q-61.89,35.87-123.76,71.76a50.63,50.63,0,0,0-5,3.8Z" transform="translate(-42 -37)"/><path d="M488.22,37c3.68,7.63,7.26,15.32,11.06,22.89q21.71,43.24,43.51,86.42c1.05,2.08,2,4.22,3.19,6.81-31.06,3.24-61.31,6.35-91.55,9.56Q421,166.22,387.61,170c-3.32.38-5.51.36-7.32-3.24q-32-64-64.3-127.91a9.34,9.34,0,0,1-.5-1.87Z" transform="translate(-42 -37)"/><path d="M632.16,37c17,33.55,34,67.1,51.42,101.38-10.29,1.17-19.66,2.28-29,3.28q-35,3.76-70,7.43c-2.16.23-4.5-.17-6.48.53-14.56,5.18-20.17-2.83-25.81-14.84C537.8,104,521.94,73.93,506.68,43.56c-1.06-2.11-1.85-4.37-2.76-6.56Z" transform="translate(-42 -37)"/><path d="M748.62,37a69,69,0,0,0,2.51,6.57Q770.3,81.81,789.56,120c1.05,2.09,2,4.24,3.18,6.82l-52.15,5.7c-11,1.19-22,2.19-33,3.64-6.08.8-10,.13-13.22-6.49C679.29,98.58,663.44,67.85,647.86,37Z" transform="translate(-42 -37)"/><path d="M948.83,434.8l-71.16,40.86c-1.82,1-3.65,2-5.88,3.3l-50.07-99.38,81.85-34.5c1.32,2.49,2.46,4.53,3.51,6.62q19.24,38.13,38.48,76.25c1,1.91,2.17,3.7,3.27,5.54Z" transform="translate(-42 -37)"/><path d="M135,221.55l63.73-7.88q56.7-7,113.4-14c16.42-2,32.83-4,49.28-5.65,1.93-.19,5.14,1.29,6,2.91Q400.39,261.89,433,327a12,12,0,0,1,.47,2.53L216,382.47C189.2,329.24,162.35,275.92,135,221.55Z" transform="translate(-42 -37)"/><path d="M229.93,405.5l137.42-36.07c24.18-6.34,48.37-12.6,72.54-19,3.36-.89,5.91-1.61,8,2.56q32.43,64.9,65.18,129.66a14.3,14.3,0,0,1,.63,2.49L310.88,566.19Z" transform="translate(-42 -37)"/><path d="M392.11,190c14.41-1.81,27.76-3.51,41.12-5.16q40.75-5.06,81.53-10.08c11.43-1.42,22.85-2.87,34.29-4.25,3.31-.39,6-.3,7.94,3.65,18,36.29,36.33,72.44,54.54,108.64.37.74.58,1.55,1.16,3.11L459.22,323.29C436.91,279,414.78,235.06,392.11,190Z" transform="translate(-42 -37)"/><path d="M622.65,302.55,680.94,418.3,537.56,475.61c-22.25-44.17-44.45-88.22-67.08-133.15Z" transform="translate(-42 -37)"/><path d="M547.36,495.11l142.11-59.86c19.46,38.62,38.73,76.87,58.3,115.73L614.44,628.26C592,583.72,569.88,539.8,547.36,495.11Z" transform="translate(-42 -37)"/><path d="M570.05,168.1c22.68-2.73,45.07-5.38,67.45-8.13q23.93-3,47.81-6.16c3.14-.42,5.65-.78,7.51,3,15.91,32,32,63.88,48.07,95.81a8.45,8.45,0,0,1,.26,2c-11.58,2.89-23.24,5.85-34.92,8.7-24.43,5.94-48.87,11.8-73.29,17.77-3.33.81-6,1.58-8.05-2.58-17.9-35.89-36-71.68-54-107.51A18.39,18.39,0,0,1,570.05,168.1Z" transform="translate(-42 -37)"/><path d="M636.45,299.07c13.4-3.59,26.29-7.1,39.21-10.49,23-6.06,46.09-12,69.1-18.1,3.47-.92,5.86-1.2,7.86,2.83,16,32.12,32.15,64.12,48.64,96.9L693.92,413.13C674.74,375.05,655.76,337.38,636.45,299.07Z" transform="translate(-42 -37)"/><path d="M759.83,544c-19.26-38.22-38.23-75.89-57.5-114.15L808.74,385c17,33.66,33.76,67,50.93,101.11Z" transform="translate(-42 -37)"/><path d="M706.28,151.53c29.63-3.76,58.42-7.43,87.22-11,3.15-.39,6.15-.81,8.16,3.25,14,28.27,28.29,56.41,43,85.56-8.66,2.24-16.84,4.44-25.07,6.45-19.3,4.73-38.63,9.36-57.94,14-3.23.79-5.89,1.52-8-2.68-15.26-30.78-30.8-61.43-46.23-92.13A27.64,27.64,0,0,1,706.28,151.53Z" transform="translate(-42 -37)"/><path d="M814.37,365c-16.8-33.37-33.29-66.1-50.11-99.52l87.82-23.05c15,29.73,29.88,59.34,45,89.47Z" transform="translate(-42 -37)"/><polygon points="565 629 492 661.51 492 963 565 963 565 629"/><polygon points="281 553 361 714 551 604 281 553"/></svg>