<svg id="Layer_2" data-name="Layer 2" xmlns="http://www.w3.org/2000/svg" viewBox="0 0 966.83 729.49"><title>carportPV</title><path d="M220.08,774.65c5.34-10.64,10-20.47,15.16-30,5-9.2,10-18.48,15.95-27a17.18,17.18,0,0,1,11.29-6.5,1196.75,1196.75,0,0,1,161.91-.71c8.34.54,14.13,3.52,17.94,10.78Q455.14,745.59,468,770l3.38,6.45c.7-1.31,1.07-1.85,1.3-2.45,1.59-4.15,2.5-11.39,4.85-11.89,6.55-1.4,13.89-.82,20.53.68,2.63.6,4.24,5.71,6.31,8.77-2.74,1.65-5.32,3.66-8.25,4.82-2.07.81-4.6.46-6.92.6-11.78.74-16.58,9.47-9.24,19,5.95,7.76,14.16,13.75,21.13,20.77,2,2,4.73,5,4.59,7.43q-2.45,42.11-5.88,84.15c-.51,6.35-5.3,8.64-11.53,8.6-17.46-.13-34.92,0-52.38,0l-229.8.1c-12.71,0-14.87-1.77-16.78-14.35-3.81-25.13-6.62-50.31-5-75.81.33-5.23,2.15-8.74,6.26-12.33a152.39,152.39,0,0,0,20.54-21.65c2.37-3.06,2.42-8.64,1.83-12.83-.19-1.39-5.64-2.33-8.79-2.93s-6.59-.13-9.71-.91c-2.23-.56-5.4-2.07-5.87-3.77a8.77,8.77,0,0,1,2-7.34c2.16-2,5.54-3.2,8.59-3.8s6.52.15,9.74-.17c5.93-.61,9.47,1.21,9.54,7.75C218.51,770.41,219.31,772,220.08,774.65Zm4.31,8.19H466.05c-6.49-14.64-13.12-28-18.33-41.87-3.43-9.13-8.85-12.59-18.19-11.73-4.13.37-8.36-.45-12.54-.66a1446.9,1446.9,0,0,0-163.32,1.18c-2.2.14-5.46,1.35-6.25,3C239.62,749.08,232.24,765.6,224.39,782.84ZM346,888.55v-.06c-24.4,0-48.81,0-73.21,0-3.53,0-6,.37-7.39,4.43-3.23,9.45.93,15.69,11.88,15.72,45.31.12,90.62,0,135.93-.11a17.72,17.72,0,0,0,5.51-.65c5.14-1.75,8.4-5.23,7.65-11-.73-5.56-3.06-8.69-10-8.53C392.94,888.88,369.46,888.55,346,888.55Zm111.15-61.33c-6.57.5-12.11.92-17.65,1.36-1.15.09-2.54-.15-3.42.4-4.37,2.73-9.7,4.85-12.63,8.74-4.83,6.4-.54,14.91,7.48,15.19,13,.46,26,.47,39-.33s23.57-17,19.11-28l-22.27,2.07c9,7.8,10.46,14.66,5.32,20.7a12.11,12.11,0,0,1-16.9,1.33C449.2,843.57,449.66,836.44,457.13,827.22Zm-256-2.64c-1.93,15,7.1,27.25,21.2,28.28a329.82,329.82,0,0,0,36.94.22c8.4-.32,12.52-8.61,7.89-15.65-2-3.1-5.45-6.48-8.81-7.27-7.88-1.83-16.1-2.18-25.51-3.29,8.39,9.19,9.07,15.81,3.3,21.32a12.29,12.29,0,0,1-16.51.19c-6.18-5.62-5.3-12.06,3.54-22Zm118.1,7.08v-.72c-5.57.33-11.14.58-16.7,1-4.26.35-6,2.55-5.4,7,1.23,8.79,6.9,14.92,16.49,16.33a173,173,0,0,0,19.45,1.51c7.2.25,10.3-2.54,10.72-8.9.76-11.68-1.17-15.39-9.23-16.21C329.52,831.24,324.36,831.66,319.25,831.66Zm57-.68v.32c-3,0-6-.08-9.08,0-14.07.42-16.23,2.87-15.43,16.63.36,6.12,3.66,9,9.35,8.9a158.4,158.4,0,0,0,21.55-1.63c7.92-1.27,13.53-5.8,15.49-14.09,1.34-5.7-.17-9.11-6.54-9.34C386.5,831.59,381.4,831.26,376.29,831ZM226.05,847.33l3.19.06c1.84-2.68,5.35-5.58,5-8s-4.08-6-6.76-6.42c-1.81-.3-6,3.79-6.16,6.12C221.18,841.73,224.34,844.58,226.05,847.33Zm235.07,0h3.05c1.84-2.49,4.73-4.77,5.27-7.51.82-4.18-2.14-7.69-6.37-7-2.6.45-6.33,3.81-6.53,6.13C456.3,841.59,459.45,844.51,461.12,847.3Z" transform="translate(-24 -207.51)"/><path d="M463.08,919.74c8.17,0,16.5.06,24.84,0,10.26-.09,14.07-3.64,15.35-14a305.48,305.48,0,0,1,4.85-30.3c0,16.28.14,32.55-.08,48.83-.07,5.45-3.55,8.61-9,8.75-9.3.23-18.63.34-27.92,0C463.86,932.74,461.32,928.48,463.08,919.74Z" transform="translate(-24 -207.51)"/><path d="M184.34,890.17c.91,5.64,1.7,11.3,2.74,16.92,1.68,9,6,12.64,15.33,12.75,8.76.1,17.52,0,26.18,0,1.11,9.53-1.65,13.08-10,13.24s-16.7.08-25.05,0c-5.9,0-10.09-2.58-10.24-8.89-.27-11.31-.08-22.63-.08-33.94Z" transform="translate(-24 -207.51)"/><path d="M319.25,831.66c5.11,0,10.27-.42,15.32.09,8.06.82,10,4.53,9.23,16.21-.42,6.36-3.52,9.15-10.72,8.9a173,173,0,0,1-19.45-1.51c-9.59-1.41-15.26-7.54-16.49-16.33-.63-4.5,1.14-6.7,5.4-7,5.56-.45,11.13-.7,16.7-1Zm-18.89,3.12c.43,10.81,4.56,16.19,13.28,17.55a196.72,196.72,0,0,0,20.05,1.55c4.27.22,7.42-1.54,7.26-6.32-.16-4.95,2.24-12-5.76-12.59C323.77,834.22,312.28,834.78,300.36,834.78Z" transform="translate(-24 -207.51)"/><path d="M376.29,831c5.11.28,10.21.61,15.33.8,6.37.23,7.88,3.64,6.54,9.34-2,8.29-7.57,12.82-15.49,14.09a158.4,158.4,0,0,1-21.55,1.63c-5.69.13-9-2.78-9.35-8.9-.8-13.76,1.36-16.21,15.43-16.63,3-.09,6.05,0,9.08,0ZM376,833.9c-4.72.25-10.07.24-15.34.9-8.21,1-5.54,7.63-5.89,12.52s2.55,6.78,6.91,6.57a199.41,199.41,0,0,0,20.75-1.67c6-1,10.6-4.41,12.48-10.68,1.24-4.13.64-6.77-4.43-6.87C385.88,834.58,381.27,834.19,376,833.9Z" transform="translate(-24 -207.51)"/><path d="M226.05,847.33c-1.71-2.75-4.87-5.6-4.69-8.22.15-2.33,4.35-6.42,6.16-6.12,2.68.44,6.43,3.88,6.76,6.42s-3.2,5.3-5,8Z" transform="translate(-24 -207.51)"/><path d="M461.12,847.3c-1.67-2.79-4.82-5.71-4.58-8.33.2-2.32,3.93-5.68,6.53-6.13,4.23-.73,7.19,2.78,6.37,7-.54,2.74-3.43,5-5.27,7.51Z" transform="translate(-24 -207.51)"/><path d="M446.28,841.94a9.3,9.3,0,0,1-18.6.51,9.3,9.3,0,1,1,18.6-.51Zm-9.26-5.4c-1.82,2.64-3.77,4.24-3.63,5.62s2.3,2.71,3.57,4.05c1.35-1.32,3.58-2.53,3.77-4S438.88,839.21,437,836.54Z" transform="translate(-24 -207.51)"/><path d="M262.93,843.09a9.22,9.22,0,0,1-18.36-1.76,9.22,9.22,0,1,1,18.36,1.76ZM259.32,842c-2.78-1.7-4.56-3.64-5.85-3.36s-3,2.58-3.27,4.18c-.13,1,2.34,3.26,3.49,3.16C255.25,845.8,256.67,844,259.32,842Z" transform="translate(-24 -207.51)"/><path d="M300.36,834.78c11.92,0,23.41-.56,34.83.19,8,.54,5.6,7.64,5.76,12.59.16,4.78-3,6.54-7.26,6.32a196.72,196.72,0,0,1-20.05-1.55C304.92,851,300.79,845.59,300.36,834.78Z" transform="translate(-24 -207.51)"/><path d="M376,833.9c5.24.29,9.85.68,14.48.77,5.07.1,5.67,2.74,4.43,6.87-1.88,6.27-6.45,9.73-12.48,10.68a199.41,199.41,0,0,1-20.75,1.67c-4.36.21-7.25-1.76-6.91-6.57s-2.32-11.5,5.89-12.52C366,834.14,371.31,834.15,376,833.9Z" transform="translate(-24 -207.51)"/><path d="M437,836.54c1.86,2.67,3.89,4.31,3.71,5.67s-2.42,2.68-3.77,4c-1.27-1.34-3.42-2.59-3.57-4.05S435.2,839.18,437,836.54Z" transform="translate(-24 -207.51)"/><path d="M259.32,842c-2.65,2-4.07,3.85-5.63,4-1.15.1-3.62-2.21-3.49-3.16.23-1.6,1.86-3.87,3.27-4.18S256.54,840.25,259.32,842Z" transform="translate(-24 -207.51)"/><path d="M572.72,778.31c5.35-10.63,10-20.46,15.17-30,5-9.2,10-18.48,16-27a17.13,17.13,0,0,1,11.29-6.51,1196.75,1196.75,0,0,1,161.91-.7c8.34.54,14.12,3.51,17.94,10.77q12.81,24.4,25.7,48.78c1.05,2,2.08,4,3.39,6.44.7-1.3,1.07-1.85,1.3-2.44,1.59-4.16,2.49-11.4,4.85-11.9,6.55-1.4,13.89-.82,20.53.69,2.63.59,4.23,5.71,6.31,8.76-2.74,1.65-5.33,3.67-8.25,4.82-2.07.81-4.6.46-6.92.61-11.78.73-16.58,9.47-9.25,19,6,7.76,14.17,13.75,21.13,20.77,2,2.06,4.74,5,4.6,7.43q-2.46,42.1-5.88,84.15c-.52,6.35-5.3,8.65-11.53,8.6-17.46-.12-34.92,0-52.38,0l-229.8.11c-12.71,0-14.87-1.78-16.78-14.36-3.81-25.12-6.62-50.31-5-75.81.33-5.23,2.15-8.73,6.26-12.32a152.93,152.93,0,0,0,20.54-21.65c2.37-3.07,2.42-8.64,1.83-12.84-.19-1.39-5.64-2.32-8.8-2.93s-6.59-.13-9.7-.91c-2.23-.56-5.4-2.06-5.87-3.77a8.74,8.74,0,0,1,2-7.33c2.16-2,5.54-3.2,8.58-3.81s6.52.16,9.75-.17c5.92-.6,9.47,1.21,9.54,7.76C571.16,774.08,572,775.62,572.72,778.31ZM577,786.5H818.7c-6.5-14.64-13.12-28-18.33-41.86-3.43-9.14-8.85-12.6-18.2-11.74-4.12.38-8.35-.45-12.53-.65a1446.89,1446.89,0,0,0-163.32,1.17c-2.2.14-5.46,1.35-6.25,3C592.27,752.75,584.89,769.26,577,786.5ZM698.63,892.22v-.07c-24.4,0-48.81,0-73.21,0-3.54,0-6,.37-7.39,4.43-3.23,9.44.93,15.68,11.88,15.71,45.31.13,90.62,0,135.93-.11a17.43,17.43,0,0,0,5.51-.65c5.14-1.75,8.4-5.22,7.65-11-.73-5.56-3.06-8.68-10-8.53C745.59,892.54,722.11,892.22,698.63,892.22Zm111.15-61.34-17.65,1.36c-1.16.09-2.54-.15-3.43.4-4.36,2.74-9.69,4.86-12.63,8.74-4.82,6.41-.53,14.91,7.49,15.2,13,.45,26,.46,39-.34s23.57-17,19.12-28l-22.27,2.06c9,7.81,10.46,14.67,5.32,20.71a12.14,12.14,0,0,1-16.91,1.33C801.85,847.24,802.31,840.1,809.78,830.88Zm-256-2.64c-1.93,15,7.1,27.25,21.2,28.29a332.23,332.23,0,0,0,36.94.21c8.4-.31,12.51-8.61,7.89-15.65-2-3.1-5.45-6.48-8.82-7.26-7.87-1.84-16.09-2.19-25.5-3.3,8.38,9.19,9.07,15.82,3.29,21.33a12.32,12.32,0,0,1-16.51.19c-6.18-5.63-5.29-12.07,3.55-22Zm118.1,7.08v-.72c-5.57.34-11.14.58-16.7,1-4.26.34-6,2.54-5.4,7,1.22,8.79,6.89,14.93,16.48,16.34a175.53,175.53,0,0,0,19.46,1.51c7.2.24,10.3-2.54,10.72-8.91.76-11.67-1.17-15.38-9.23-16.2C682.16,834.9,677,835.32,671.9,835.32Zm57-.67V835c-3,0-6-.08-9.07,0-14.08.42-16.23,2.88-15.43,16.64.35,6.11,3.66,9,9.35,8.89a159.74,159.74,0,0,0,21.54-1.62c7.93-1.27,13.54-5.81,15.49-14.1,1.35-5.7-.17-9.1-6.54-9.34C739.15,835.26,734,834.92,728.93,834.65ZM578.69,851l3.2.07c1.83-2.68,5.35-5.58,5-8-.34-2.55-4.08-6-6.76-6.43-1.82-.3-6,3.79-6.17,6.12C573.82,845.39,577,848.24,578.69,851Zm235.08,0h3.05c1.84-2.49,4.73-4.77,5.27-7.51.82-4.18-2.15-7.68-6.37-7-2.6.45-6.33,3.81-6.54,6.13C809,845.25,812.1,848.17,813.77,851Z" transform="translate(-24 -207.51)"/><path d="M815.73,923.4c8.17,0,16.5.06,24.84,0,10.25-.09,14.07-3.63,15.35-14a305.28,305.28,0,0,1,4.85-30.29c0,16.27.14,32.55-.08,48.82-.07,5.45-3.55,8.62-9,8.75-9.31.23-18.63.35-27.92,0C816.51,936.41,814,932.15,815.73,923.4Z" transform="translate(-24 -207.51)"/><path d="M537,893.84c.91,5.64,1.7,11.3,2.74,16.91,1.68,9,6,12.65,15.33,12.75,8.76.1,17.52,0,26.18,0,1.1,9.53-1.66,13.09-10,13.25s-16.69.07-25,0c-5.9,0-10.1-2.58-10.24-8.88-.27-11.31-.08-22.63-.08-33.95Z" transform="translate(-24 -207.51)"/><path d="M671.9,835.32c5.11,0,10.26-.42,15.32.1,8.06.82,10,4.53,9.23,16.2-.42,6.37-3.52,9.15-10.72,8.91A175.53,175.53,0,0,1,666.27,859c-9.59-1.41-15.26-7.55-16.48-16.34-.63-4.5,1.14-6.7,5.4-7,5.56-.46,11.13-.7,16.7-1ZM653,838.45c.43,10.8,4.56,16.18,13.28,17.54a193.91,193.91,0,0,0,20.05,1.56c4.26.21,7.42-1.55,7.26-6.32-.16-5,2.24-12.06-5.77-12.59C676.42,837.88,664.92,838.45,653,838.45Z" transform="translate(-24 -207.51)"/><path d="M728.93,834.65c5.11.27,10.22.61,15.33.79,6.37.24,7.89,3.64,6.54,9.34-1.95,8.29-7.56,12.83-15.49,14.1a159.74,159.74,0,0,1-21.54,1.62c-5.69.13-9-2.78-9.35-8.89-.8-13.76,1.35-16.22,15.43-16.64,3-.09,6,0,9.07,0Zm-.25,2.91c-4.72.26-10.07.25-15.34.9-8.22,1-5.54,7.64-5.89,12.53s2.55,6.78,6.91,6.56a199.41,199.41,0,0,0,20.75-1.67c6-.94,10.6-4.4,12.48-10.68,1.24-4.12.64-6.76-4.43-6.87C738.53,838.24,733.91,837.85,728.68,837.56Z" transform="translate(-24 -207.51)"/><path d="M578.69,851c-1.7-2.75-4.87-5.6-4.69-8.22.16-2.33,4.35-6.42,6.17-6.12,2.68.45,6.42,3.88,6.76,6.43.31,2.4-3.21,5.3-5,8Z" transform="translate(-24 -207.51)"/><path d="M813.77,851c-1.67-2.79-4.82-5.71-4.59-8.33.21-2.32,3.94-5.68,6.54-6.13,4.22-.72,7.19,2.78,6.37,7-.54,2.74-3.43,5-5.27,7.51Z" transform="translate(-24 -207.51)"/><path d="M798.93,845.61a9.3,9.3,0,0,1-18.6.5,9.3,9.3,0,1,1,18.6-.5Zm-9.26-5.4c-1.82,2.64-3.77,4.23-3.63,5.61s2.29,2.71,3.57,4.06c1.34-1.33,3.58-2.54,3.77-4S791.53,842.88,789.67,840.21Z" transform="translate(-24 -207.51)"/><path d="M615.58,846.76A9.22,9.22,0,0,1,597.22,845a9.22,9.22,0,1,1,18.36,1.77ZM612,845.62c-2.78-1.71-4.56-3.65-5.85-3.37s-3,2.58-3.27,4.18c-.13,1,2.34,3.26,3.49,3.16C607.9,849.46,609.32,847.61,612,845.62Z" transform="translate(-24 -207.51)"/><path d="M653,838.45c11.91,0,23.41-.57,34.82.19,8,.53,5.61,7.64,5.77,12.59.16,4.77-3,6.53-7.26,6.32A193.91,193.91,0,0,1,666.29,856C657.57,854.63,653.44,849.25,653,838.45Z" transform="translate(-24 -207.51)"/><path d="M728.68,837.56c5.23.29,9.85.68,14.48.77,5.07.11,5.67,2.75,4.43,6.87-1.88,6.28-6.45,9.74-12.48,10.68a199.41,199.41,0,0,1-20.75,1.67c-4.36.22-7.25-1.76-6.91-6.56s-2.33-11.51,5.89-12.53C718.61,837.81,724,837.82,728.68,837.56Z" transform="translate(-24 -207.51)"/><path d="M789.67,840.21c1.86,2.67,3.88,4.31,3.71,5.66s-2.43,2.68-3.77,4c-1.28-1.35-3.43-2.6-3.57-4.06S787.85,842.85,789.67,840.21Z" transform="translate(-24 -207.51)"/><path d="M612,845.62c-2.65,2-4.07,3.84-5.63,4-1.15.1-3.62-2.21-3.49-3.16.23-1.6,1.86-3.87,3.27-4.18S609.19,843.91,612,845.62Z" transform="translate(-24 -207.51)"/><polygon points="168.33 616.82 182.07 649.79 250.76 654.37 250.76 611.32 168.33 616.82"/><polygon points="389.08 608.57 466.02 611.32 473.35 654.37 371.67 654.37 389.08 608.57"/><polygon points="525.55 616.82 603.41 616.82 607.08 658.95 525.55 654.37 525.55 620.48 525.55 616.82"/><path d="M753.82,817.92l18.32,47.63L851.82,861s-9.15-34.81-11-37.56S753.82,817.92,753.82,817.92Z" transform="translate(-24 -207.51)"/><path d="M641.21,207.51,677,278.35a5.31,5.31,0,0,1,.12,1.1c-5.77.65-11.54,1.34-17.32,2l-56.59,6c-15.44,1.64-30.88,3.23-46.31,5-2.26.26-2.7-1.13-3.41-2.55q-15.26-30.31-30.53-60.63c-3.56-7-7.28-14-10.93-21a12,12,0,0,1,2.76-.66Q578,207.5,641.21,207.51Z" transform="translate(-24 -207.51)"/><path d="M699.94,579.24a31.12,31.12,0,0,0-1.26-3.47Q680.4,539.38,662.06,503c-.57-1.11-1.11-2.24-1.8-3.66l106.38-44.8,36.16,71.79-22.42,13Q747.7,558.28,715,577.24a28,28,0,0,0-2.66,2Z" transform="translate(-24 -207.51)"/><path d="M747.61,207.51c1.95,4,3.84,8.09,5.85,12.09q11.46,22.83,23,45.63c.55,1.1,1,2.23,1.68,3.6-16.4,1.71-32.37,3.35-48.34,5q-17.64,1.88-35.28,3.88c-1.75.2-2.91.19-3.86-1.71q-16.9-33.81-34-67.54a4.65,4.65,0,0,1-.26-1Z" transform="translate(-24 -207.51)"/><path d="M823.62,207.51c9,17.72,18,35.43,27.15,53.54-5.43.61-10.38,1.2-15.33,1.73q-18.48,2-37,3.92a15.39,15.39,0,0,0-3.43.28c-7.68,2.73-10.65-1.5-13.63-7.84-7.62-16.24-16-32.12-24.06-48.16-.56-1.12-1-2.31-1.46-3.47Z" transform="translate(-24 -207.51)"/><path d="M885.11,207.51a37.09,37.09,0,0,0,1.33,3.47q10.13,20.19,20.29,40.36c.56,1.1,1,2.24,1.68,3.6l-27.54,3c-5.81.63-11.63,1.16-17.41,1.92-3.21.42-5.28.07-7-3.43-8-16.41-16.34-32.63-24.57-48.93Z" transform="translate(-24 -207.51)"/><path d="M990.83,417.56l-37.58,21.58c-1,.55-1.93,1.08-3.1,1.74L923.71,388.4l43.22-18.21c.7,1.31,1.3,2.39,1.85,3.49Q979,393.81,989.1,413.94c.51,1,1.15,2,1.73,2.93Z" transform="translate(-24 -207.51)"/><path d="M561.08,305l33.65-4.16q29.94-3.69,59.89-7.38c8.66-1.06,17.33-2.11,26-3a3.92,3.92,0,0,1,3.15,1.54q17.44,34.29,34.65,68.69a5.65,5.65,0,0,1,.25,1.33L603.88,389.93C589.73,361.82,575.55,333.67,561.08,305Z" transform="translate(-24 -207.51)"/><path d="M611.23,402.09l72.56-19c12.77-3.35,25.55-6.66,38.3-10,1.78-.47,3.12-.85,4.22,1.35q17.13,34.27,34.42,68.47a7,7,0,0,1,.33,1.31L654,486.94Z" transform="translate(-24 -207.51)"/><path d="M696.86,288.32c7.62-1,14.67-1.85,21.72-2.72l43-5.33c6-.74,12.07-1.51,18.1-2.24,1.75-.21,3.16-.16,4.2,1.93,9.51,19.16,19.18,38.25,28.79,57.36.2.39.31.82.62,1.65l-81,19.71C720.52,335.28,708.84,312.09,696.86,288.32Z" transform="translate(-24 -207.51)"/><path d="M818.59,347.73c10.27,20.37,20.45,40.59,30.78,61.12l-75.7,30.26L738.25,368.8Z" transform="translate(-24 -207.51)"/><path d="M778.84,449.4l75-31.6,30.79,61.11-70.41,40.8Z" transform="translate(-24 -207.51)"/><path d="M790.82,276.74c12-1.44,23.8-2.84,35.62-4.3,8.42-1,16.83-2.13,25.24-3.25,1.66-.22,3-.41,4,1.57,8.4,16.89,16.91,33.73,25.38,50.59a5.13,5.13,0,0,1,.14,1.06c-6.12,1.53-12.27,3.09-18.44,4.59-12.9,3.14-25.81,6.23-38.7,9.39-1.76.43-3.16.83-4.25-1.36-9.45-18.95-19-37.85-28.53-56.77A11.16,11.16,0,0,1,790.82,276.74Z" transform="translate(-24 -207.51)"/><path d="M825.88,345.89c7.08-1.89,13.89-3.75,20.71-5.54,12.16-3.2,24.33-6.33,36.49-9.56,1.83-.48,3.09-.63,4.15,1.5,8.42,17,17,33.86,25.68,51.17l-56.68,22.66C846.1,386,836.08,366.12,825.88,345.89Z" transform="translate(-24 -207.51)"/><path d="M891,475.22C880.86,455,870.84,435.15,860.67,415l56.19-23.68c8.95,17.77,17.83,35.39,26.89,53.39Z" transform="translate(-24 -207.51)"/><path d="M862.76,268c15.64-2,30.84-3.93,46-5.82,1.66-.21,3.25-.43,4.31,1.71,7.4,14.93,14.94,29.79,22.69,45.19-4.57,1.17-8.89,2.34-13.24,3.4q-15.29,3.73-30.59,7.41c-1.71.42-3.11.81-4.21-1.41-8.06-16.26-16.27-32.44-24.41-48.65A12.65,12.65,0,0,1,862.76,268Z" transform="translate(-24 -207.51)"/><path d="M919.83,380.7c-8.87-17.62-17.58-34.9-26.46-52.55L939.74,316l23.79,47.24Z" transform="translate(-24 -207.51)"/><rect x="49" y="464.49" width="50" height="265"/><rect x="887" y="464.49" width="50" height="265"/><rect x="10" y="400.49" width="946" height="64"/><rect x="812" y="279.49" width="18" height="152"/><path d="M153.21,210.51,189,281.35a5.31,5.31,0,0,1,.12,1.1c-5.77.65-11.54,1.34-17.32,2l-56.59,6c-15.44,1.64-30.88,3.23-46.31,5-2.26.26-2.7-1.13-3.41-2.55q-15.25-30.31-30.53-60.63c-3.56-7-7.28-14-10.93-21a12,12,0,0,1,2.76-.66Q90,210.5,153.21,210.51Z" transform="translate(-24 -207.51)"/><path d="M211.94,582.24a31.12,31.12,0,0,0-1.26-3.47Q192.4,542.38,174.06,506c-.57-1.11-1.11-2.24-1.8-3.66l106.38-44.8,36.16,71.79-22.42,13Q259.69,561.28,227,580.24a28,28,0,0,0-2.66,2Z" transform="translate(-24 -207.51)"/><path d="M259.61,210.51c1.95,4,3.84,8.09,5.85,12.09q11.46,22.83,23,45.63c.55,1.1,1,2.23,1.68,3.6-16.4,1.71-32.37,3.35-48.34,5q-17.64,1.88-35.28,3.88c-1.75.2-2.91.19-3.86-1.71q-16.9-33.81-34-67.54a4.65,4.65,0,0,1-.26-1Z" transform="translate(-24 -207.51)"/><path d="M335.62,210.51c9,17.72,18,35.43,27.15,53.54-5.43.61-10.38,1.2-15.33,1.73q-18.48,2-37,3.92a15.39,15.39,0,0,0-3.43.28c-7.68,2.73-10.65-1.5-13.63-7.84-7.62-16.24-16-32.12-24.06-48.16-.56-1.12-1-2.31-1.46-3.47Z" transform="translate(-24 -207.51)"/><path d="M397.11,210.51a37.09,37.09,0,0,0,1.33,3.47q10.13,20.19,20.29,40.36c.56,1.1,1,2.24,1.68,3.6l-27.54,3c-5.81.63-11.63,1.16-17.41,1.92-3.21.42-5.28.07-7-3.43-8-16.41-16.34-32.63-24.57-48.93Z" transform="translate(-24 -207.51)"/><path d="M502.83,420.56l-37.58,21.58c-1,.55-1.93,1.08-3.1,1.74L435.71,391.4l43.22-18.21c.7,1.31,1.3,2.39,1.85,3.49Q491,396.81,501.1,416.94c.51,1,1.15,2,1.73,2.93Z" transform="translate(-24 -207.51)"/><path d="M73.08,308l33.65-4.16q29.94-3.69,59.89-7.38c8.66-1.06,17.33-2.11,26-3a3.92,3.92,0,0,1,3.15,1.54q17.44,34.29,34.65,68.69a5.65,5.65,0,0,1,.25,1.33L115.88,392.93C101.73,364.82,87.55,336.67,73.08,308Z" transform="translate(-24 -207.51)"/><path d="M123.23,405.09l72.56-19c12.77-3.35,25.55-6.66,38.3-10,1.78-.47,3.12-.85,4.22,1.35q17.13,34.27,34.42,68.47a7,7,0,0,1,.33,1.31L166,489.94Z" transform="translate(-24 -207.51)"/><path d="M208.86,291.32c7.62-1,14.67-1.85,21.72-2.72l43-5.33c6-.74,12.07-1.51,18.1-2.24,1.75-.21,3.16-.16,4.2,1.93,9.51,19.16,19.18,38.25,28.79,57.36.2.39.31.82.62,1.65l-81,19.71C232.52,338.28,220.84,315.09,208.86,291.32Z" transform="translate(-24 -207.51)"/><path d="M330.59,350.73c10.27,20.37,20.45,40.59,30.78,61.12l-75.7,30.26L250.25,371.8Z" transform="translate(-24 -207.51)"/><path d="M290.84,452.4l75-31.6,30.79,61.11-70.41,40.8Z" transform="translate(-24 -207.51)"/><path d="M302.82,279.74c12-1.44,23.8-2.84,35.62-4.3,8.42-1,16.83-2.13,25.24-3.25,1.66-.22,3-.41,4,1.57,8.4,16.89,16.91,33.73,25.38,50.59a5.13,5.13,0,0,1,.14,1.06c-6.12,1.53-12.27,3.09-18.44,4.59-12.9,3.14-25.81,6.23-38.7,9.39-1.76.43-3.16.83-4.25-1.36-9.45-18.95-19-37.85-28.53-56.77A11.16,11.16,0,0,1,302.82,279.74Z" transform="translate(-24 -207.51)"/><path d="M337.88,348.89c7.08-1.89,13.89-3.75,20.71-5.54,12.16-3.2,24.33-6.33,36.49-9.56,1.83-.48,3.09-.63,4.15,1.5,8.42,17,17,33.86,25.68,51.17l-56.68,22.66C358.1,389,348.08,369.12,337.88,348.89Z" transform="translate(-24 -207.51)"/><path d="M403,478.22C392.86,458,382.84,438.15,372.67,418l56.19-23.68c8.95,17.77,17.83,35.39,26.89,53.39Z" transform="translate(-24 -207.51)"/><path d="M374.76,271c15.64-2,30.84-3.93,46.05-5.82,1.66-.21,3.25-.43,4.31,1.71,7.4,14.93,14.94,29.79,22.69,45.19-4.57,1.17-8.89,2.34-13.24,3.4q-15.29,3.73-30.59,7.41c-1.71.42-3.11.81-4.21-1.41-8.06-16.26-16.27-32.44-24.41-48.65A12.65,12.65,0,0,1,374.76,271Z" transform="translate(-24 -207.51)"/><path d="M431.83,383.7c-8.87-17.62-17.58-34.9-26.46-52.55L451.74,319l23.79,47.24Z" transform="translate(-24 -207.51)"/><rect x="324" y="282.49" width="18" height="152"/></svg>