<svg id="Layer_2" data-name="Layer 2" xmlns="http://www.w3.org/2000/svg" viewBox="0 0 954 850"><title>roofPV</title><path d="M54.23,402c8.78,1.12,17.56,2.35,26.36,3.32,46.43,5.12,92.83,10.43,139.31,15,9.27.91,15,4.08,19.82,12.21,9.74,16.41,20.77,32.06,31.25,48,.67,1,1.18,2.16,2,3.7-2.33,0-4.12.09-5.9,0q-85.63-5-171.28-9.94c-3.4-.2-5.27-1.31-6.92-4.41-11.52-21.61-23.28-43.1-35-64.59-.39-.72-1.46-1.07-2.21-1.6C51.12,401.1,53.14,402.26,54.23,402Z" transform="translate(-31 -150)"/><path d="M206.61,682.22c6.64-.76,13.26-1.55,19.88-2.28,51.71-5.67,103.44-11.21,155.12-17.15,6.87-.79,10.85.45,14.8,6.73,15.48,24.62,31.73,48.75,47.69,73.06.7,1.07,1.37,2.17,2.41,3.83-3.12.75-5.92,1.51-8.76,2.09Q351.58,766,265.4,783.58c-2.57.53-4.08.36-5.51-2.28q-26.41-48.9-53.06-97.66A6.28,6.28,0,0,1,206.61,682.22Z" transform="translate(-31 -150)"/><path d="M383.24,650.22,335,654.92c-43.22,4.21-86.45,8.32-129.64,12.75-5.16.52-7.85-.62-10.35-5.32-14.49-27.19-29.35-54.17-44.06-81.24a23.77,23.77,0,0,1-1.06-2.89c1.42-.17,2.62-.4,3.83-.43Q241,575.9,328.28,574c3.68-.08,5.87.89,8,4.13C351,600.93,366,623.6,380.91,646.33,381.6,647.38,382.2,648.48,383.24,650.22Z" transform="translate(-31 -150)"/><path d="M324.42,563.16c-1.72.1-3.11.25-4.5.27q-87.28,1-174.57,2.05c-3.24,0-5.07-.78-6.71-3.84-13.54-25.28-27.32-50.43-41.3-76.12,1.58-.09,2.63-.24,3.68-.19q87.82,4.37,175.64,8.84a6.61,6.61,0,0,1,4.58,2.32c14.36,21.67,28.55,43.45,42.77,65.22A7.56,7.56,0,0,1,324.42,563.16Z" transform="translate(-31 -150)"/><path d="M595.59,716.15c-7.69,1.64-14.91,3.24-22.15,4.71q-51,10.36-102,20.74c-2.58.53-4.19.14-5.73-2.18Q440.24,701.13,414.61,663c-.6-.9-1.07-1.9-1.86-3.33l34.9-3.85,90.55-10c2.59-.29,4.74-.48,6.72,2.19,16.46,22.22,33.11,44.29,49.7,66.42C594.87,714.74,595,715.14,595.59,716.15Z" transform="translate(-31 -150)"/><path d="M355.24,573.62c1.27-.14,2.07-.28,2.87-.3Q420,572,481.87,570.6a8.31,8.31,0,0,1,7.82,3.8c14.47,19.59,29.16,39,43.78,58.49.42.57.81,1.15,1.7,2.4-4.07.5-7.63,1-11.2,1.34q-57.74,5.63-115.47,11.25c-2.52.24-4.19-.18-5.72-2.49q-22.9-34.51-46-68.9C356.25,575.72,355.89,574.84,355.24,573.62Z" transform="translate(-31 -150)"/><path d="M478.82,561.33c-2.11.1-3.49.22-4.87.23q-61.49.72-123,1.5c-3.22,0-5.18-.83-7-3.59-13.21-20.05-26.6-40-39.93-60-.75-1.13-1.44-2.3-2.58-4.11,12,.57,23.26,1.07,34.51,1.63q47,2.36,94,4.84c2,.11,4.74.92,5.85,2.38C450.13,522.92,464.16,541.76,478.82,561.33Z" transform="translate(-31 -150)"/><path d="M254,424.36c13.62,1.49,26.41,2.9,39.21,4.29q44.63,4.85,89.26,9.65a9.66,9.66,0,0,1,7.38,4.22c11.54,15.68,23.3,31.21,35,46.79.82,1.1,1.55,2.28,2.47,3.65-4.36,0-8.3.19-12.21,0-38.49-2.21-77-4.52-115.46-6.67-3.32-.18-5.43-1.21-7.31-4.06-11.86-18-23.92-35.82-35.9-53.72C255.75,427.44,255.18,426.32,254,424.36Z" transform="translate(-31 -150)"/><path d="M702,694.49c-6.4,1.36-12.49,2.69-18.6,3.94-23.91,4.87-47.84,9.66-71.74,14.63-3.11.65-4.91,0-6.82-2.59-15.74-21-31.62-41.86-47.45-62.78-.75-1-1.42-2.05-2.49-3.59,8.71-1,16.88-2,25.06-2.85,22.92-2.5,45.85-5,68.79-7.35,1.67-.17,4.13.45,5.11,1.63,15.76,19,31.35,38.05,47,57.13A20.8,20.8,0,0,1,702,694.49Z" transform="translate(-31 -150)"/><path d="M498.78,570c4.68,0,8.37.06,12.06,0,27.93-.57,55.86-1.11,83.79-1.81a7.61,7.61,0,0,1,6.88,3.15C615,588,628.7,604.57,642.32,621.2c.79,1,1.51,2,2.68,3.56-9.07.91-17.55,1.79-26,2.62-22.23,2.17-44.48,4.23-66.7,6.55-3.54.37-5.71-.35-7.91-3.3-14-18.83-28.31-37.5-42.49-56.23C501,573.3,500.28,572.13,498.78,570Z" transform="translate(-31 -150)"/><path d="M590.83,561.34c-32.67,0-64.92,0-97.17-.08a5.58,5.58,0,0,1-3.94-1.8q-21-27.5-41.8-55.17a6.25,6.25,0,0,1-.5-1.6c7.08.33,13.89.61,20.69.95,25.91,1.32,51.82,2.62,77.73,4a6.24,6.24,0,0,1,4,1.74Q570.3,534.1,590.5,559A11.54,11.54,0,0,1,590.83,561.34Z" transform="translate(-31 -150)"/><path d="M542,500.28l-50.81-2.9c-15.3-.88-30.6-1.86-45.91-2.61a9.33,9.33,0,0,1-7.84-4.11c-12.3-16.54-24.82-32.92-37.91-50.21,4.88.45,9,.78,13.12,1.23q43.31,4.76,86.59,9.63c1.68.19,3.78.87,4.79,2.08,12.45,15,24.74,30.08,37.06,45.16A15.59,15.59,0,0,1,542,500.28Z" transform="translate(-31 -150)"/><path d="M664.46,632.12c24.37-2.72,48.1-5.41,71.86-7.92A6.45,6.45,0,0,1,741.1,626c14.62,16.51,29.09,33.15,43.59,49.76a16.57,16.57,0,0,1,1,1.68c-6.6,1.39-12.9,2.76-19.23,4.05-16.48,3.34-33,6.72-49.49,9.87-1.57.3-4.09-.34-5-1.48C696.4,671.31,681,652.62,665.62,634A19.89,19.89,0,0,1,664.46,632.12Z" transform="translate(-31 -150)"/><path d="M611.31,568c25.77-.57,50.55-1.14,75.34-1.6a5.34,5.34,0,0,1,3.65,1.58c13.94,15.77,27.79,31.63,42.35,48.27-3.5.37-6.21.69-8.92,1-20.82,2-41.64,4-62.45,6.12a7,7,0,0,1-6.94-2.84c-13.31-16.33-26.79-32.52-40.21-48.77C613.34,570.72,612.63,569.7,611.31,568Z" transform="translate(-31 -150)"/><path d="M681.31,559c-.9.12-1.43.25-2,.26q-36.3.45-72.59.83c-1.29,0-3.07-.36-3.81-1.24-13.75-16.43-27.39-33-41.5-50,3.86,0,7-.13,10.23,0q33.45,1.62,66.9,3.41a6.38,6.38,0,0,1,4.07,1.79q19.19,21.74,38.14,43.67A5.48,5.48,0,0,1,681.31,559Z" transform="translate(-31 -150)"/><path d="M515.37,453l31.34,3.4c15.2,1.64,30.39,3.32,45.6,4.9a11.28,11.28,0,0,1,8,4.1c10.4,12.2,21,24.19,31.59,36.26.91,1,1.8,2.1,3.39,4-8.57-.47-16.21-.87-23.85-1.31-17.58-1-35.16-2-52.73-3.14-1.8-.12-4.11-.86-5.19-2.14C541,484.19,528.68,469.15,515.37,453Z" transform="translate(-31 -150)"/><path d="M749.15,622.35c17.11-1.85,33.76-3.17,50.24-5.65,7.25-1.09,11.47,1.2,16,6.41,11.16,12.87,22.94,25.19,34.45,37.74.66.72,1.22,1.52,2.19,2.76-8,1.61-15.51,3.12-23,4.66-10.08,2.05-20.14,4.22-30.26,6.07-1.63.3-4.18-.21-5.19-1.34-14.44-16.09-28.69-32.35-43-48.57C750.13,623.93,749.81,623.33,749.15,622.35Z" transform="translate(-31 -150)"/><path d="M699.91,564.71c12.42,0,24.84,0,37.26,0,7,0,14-.26,21.06-.16a6.81,6.81,0,0,1,4.46,1.68c12.9,13.82,25.67,27.77,38.46,41.7.16.18.13.52.29,1.24-9.51,1-19,1.9-28.4,2.82-9.11.9-18.21,1.85-27.33,2.55-1.64.12-4-.32-5-1.41-13.85-15.46-27.53-31.07-41.25-46.65Z" transform="translate(-31 -150)"/><path d="M753.88,557.81c-1.27.11-2.49.29-3.71.3-18.33.2-36.65.43-55,.47a7,7,0,0,1-4.77-1.92C677.65,542.38,665,528,652,513.13a18.37,18.37,0,0,1,2.73-.31c19.59.93,39.18,1.85,58.76,2.93a7.07,7.07,0,0,1,4.36,2.11c12,12.88,23.88,25.87,35.79,38.84C753.77,556.87,753.75,557.22,753.88,557.81Z" transform="translate(-31 -150)"/><path d="M709.33,509.69c-7-.36-14-.68-20.87-1.09-13.29-.79-26.58-1.59-39.86-2.5a6.51,6.51,0,0,1-4.1-1.63c-11.92-13.34-23.7-26.8-35.5-40.25-.16-.18-.16-.49-.41-1.29,7.94.83,15.65,1.59,23.35,2.45q20,2.22,40,4.59a5.69,5.69,0,0,1,3.32,1.44q17,18.45,33.91,37.06C709.29,508.62,709.23,509,709.33,509.69Z" transform="translate(-31 -150)"/><path d="M904.89,652.83c-14.33,3-28.44,5.93-42.59,8.69a5.63,5.63,0,0,1-4.47-1.3c-13.71-14.61-27.27-29.36-40.86-44.08-.14-.17-.1-.51-.2-1.12q15.53-1.69,31-3.38c4.83-.52,9.65-1.12,14.49-1.39a5.83,5.83,0,0,1,4.07,1.4c12.84,13.27,25.56,26.65,38.3,40C904.79,651.84,904.75,652.19,904.89,652.83Z" transform="translate(-31 -150)"/><path d="M769.41,563.45c14.54,0,28.41.39,42.24-.18,6.15-.25,10.28,1.41,14.38,6,10.33,11.45,21.21,22.4,32.5,34.21-4.37.57-8,1.13-11.56,1.49-11.22,1.14-22.44,2.29-33.67,3.22-1.63.14-3.91-.36-4.94-1.46-12.85-13.64-25.52-27.45-38.23-41.23A11.41,11.41,0,0,1,769.41,563.45Z" transform="translate(-31 -150)"/><path d="M812.92,557.61c-6.67,0-13.34,0-20,0-9,0-18,.21-27,.15-1.54,0-3.56-.46-4.53-1.49-12-12.71-23.77-25.55-35.6-38.38a8.81,8.81,0,0,1-.81-1.59c9,.41,17.68.78,26.32,1.2,7.57.38,15.14.76,22.7,1.3,1.59.11,3.61.47,4.62,1.51,11.66,12,23.15,24.11,34.69,36.21C813.15,556.89,813,557.25,812.92,557.61Z" transform="translate(-31 -150)"/><path d="M682.53,471l28.35,3.07c7.51.82,15,1.59,22.53,2.51,1.64.2,3.72.45,4.75,1.51,11.08,11.33,22,22.82,33.65,35-2.55,0-4.17.08-5.78,0-14.57-.84-29.15-1.6-43.71-2.68a10.21,10.21,0,0,1-6.08-3c-10.46-11-20.7-22.19-31-33.32C684.58,473.42,684,472.67,682.53,471Z" transform="translate(-31 -150)"/><path d="M947.5,644.23c-11.45,2.32-22.88,4.72-34.36,6.86a6.15,6.15,0,0,1-4.83-1.28c-12.59-12.89-25-26-37.45-39a10.5,10.5,0,0,1-.88-1.54c9.28-1,18.45-1.27,27.21-3.27,9.83-2.23,16.18,1.14,22.38,8.43,7.39,8.69,15.91,16.43,24,24.52,1.49,1.48,3.25,2.69,4.88,4Z" transform="translate(-31 -150)"/><path d="M903.55,599.37c-7.83.77-15.44,1.53-23,2.25-3.4.33-6.93.16-10.2,1-5,1.28-8.15-.41-11.51-4.09-10-11-20.5-21.58-30.79-32.33-.78-.82-1.51-1.67-2.4-2.65.53-.29.86-.61,1.19-.62,12.74-.3,25.47-.61,38.21-.77a6.34,6.34,0,0,1,4.12,1.52c11.33,11.34,22.55,22.79,33.78,34.23A5.58,5.58,0,0,1,903.55,599.37Z" transform="translate(-31 -150)"/><path d="M861.56,557c-10,0-19.57-.81-29,.23-10,1.09-16.89-1.94-23.17-9.68-7-8.63-15.29-16.23-23-24.29-1-1.09-2-2.22-3.83-4.2,4.32.28,7.53.53,10.74.7,10.43.54,20.86,1,31.28,1.64a7,7,0,0,1,4.2,1.53c10.73,10.72,21.33,21.56,32,32.39A8.16,8.16,0,0,1,861.56,557Z" transform="translate(-31 -150)"/><path d="M822.27,516.38c-15.25-.88-29.23-1.65-43.2-2.54a5,5,0,0,1-3-1.4Q760,495.76,744,479c-.16-.16-.12-.51-.25-1.09,6.85.66,13.6,1.27,20.33,2q11.05,1.19,22.1,2.56c1.34.17,3,.47,3.88,1.35C800.57,494.25,811,504.88,822.27,516.38Z" transform="translate(-31 -150)"/><path d="M985,636.58c-10.4,2.11-20.28,4.15-30.17,6.08a3.47,3.47,0,0,1-2.63-.82q-18.65-18-37.2-36.12l.87-1.41c7.71-.89,15.55-1.15,23.08-2.84,8.09-1.81,13.24,1.27,18.43,7C966.05,617.94,975.38,626.84,985,636.58Z" transform="translate(-31 -150)"/><path d="M942.75,595.6c-10.27,1-21,2-31.72,2.9a4.26,4.26,0,0,1-2.91-1.24q-16.71-16.68-33.29-33.48a11.11,11.11,0,0,1-1-1.65c8.15-.25,16,0,23.67-.88,8.62-1,14.81,1.84,20.45,8.36C925.81,578.65,934.46,587,942.75,595.6Z" transform="translate(-31 -150)"/><path d="M903.89,556.85c-12.33,0-23.58,0-34.83-.07a4.76,4.76,0,0,1-2.87-1.49q-15.86-16-31.62-32.09c-.17-.18-.17-.51-.43-1.38,7.38.34,14.57.66,21.75,1,1.42.07,2.89.56,4.26.34,8.08-1.27,13.71,2.42,18.94,8.17C886.67,539.69,894.8,547.56,903.89,556.85Z" transform="translate(-31 -150)"/><path d="M866,519c-12.45-.76-23.72-1.42-35-2.21a7.43,7.43,0,0,1-4.25-1.5c-10.53-9.87-20.93-19.86-31.36-29.82l1.17-1.79c5.26.51,10.52,1,15.78,1.53,5.8.61,11.6,1.31,17.4,1.89a13,13,0,0,1,8.56,4.07c8.06,8.33,16.43,16.35,24.68,24.5C863.75,516.45,864.44,517.31,866,519Z" transform="translate(-31 -150)"/><polygon points="0 252.03 207.33 634 0 634 0 252.03"/><rect y="650" width="236" height="200"/><polygon points="258 650 954 501 954 850 258 850 258 650"/><polygon points="0 222 803 309 800 90 741 90 741 143 713 143 713 119 678 119 678 0 590 0 590 74 560 74 560 139 524 139 524 40 448 40 448 179 414 179 414 155 369 155 369 175 352 175 352 107 310 107 310 88 258 88 258 115 236 115 236 155 189 155 189 42 119 42 119 113 88 113 88 155 0 155 0 222"/></svg>